<?xml version="1.0" encoding="iso-8859-1"?>
<!-- Uploaded to: SVG Repo, www.svgrepo.com, Generator: SVG Repo Mixer Tools -->
<!DOCTYPE svg PUBLIC "-//W3C//DTD SVG 1.1//EN" "http://www.w3.org/Graphics/SVG/1.1/DTD/svg11.dtd">
<svg fill="#000000" version="1.1" id="Capa_1" xmlns="http://www.w3.org/2000/svg" xmlns:xlink="http://www.w3.org/1999/xlink" 
	 width="800px" height="800px" viewBox="0 0 46.773 46.773"
	 xml:space="preserve">
<g>
	<g>
		<path d="M25.399,10.157c2.702-2.345,5.523-4.429,8.671-6.143c0.153-0.083,0.549-0.31,0.335-0.526
			c-5.241-5.31-13.491-3.602-19.598-1.136c-0.146,0.059-0.259,0.116-0.343,0.169c-0.178,0.114-0.236,0.325-0.249,0.376
			c-0.008,0.032,0,0.06,0.037,0.08c3.574,1.995,6.581,4.577,9.358,7.568C23.992,10.955,25.086,10.429,25.399,10.157z M18.438,3.788
			c-0.737-0.499-1.301-0.926-1.232-0.995c0.068-0.069,0.034-0.092-0.076-0.048c-0.109,0.044-0.303,0.015-0.43-0.066
			c-0.127-0.082,0.602-0.469,1.658-0.794c1.097-0.338,2.177-0.596,3.259-0.752c1.093-0.159,1.883-0.071,1.749,0.053
			c-0.082,0.076-0.164,0.151-0.244,0.225c-0.643,0.63-1.292,1.269-1.945,1.91C20.389,4.094,19.175,4.287,18.438,3.788z
			 M21.274,5.902c-0.036-0.034,0.562-0.696,1.341-1.479C24.132,2.9,25.27,1.774,25.93,1.149c0.011-0.01,0.021-0.02,0.028-0.028
			c0.015-0.016,0.039-0.026,0.055-0.024S25.42,1.746,24.653,2.54c-0.572,0.592-1.224,1.266-1.921,1.985
			C21.964,5.318,21.311,5.935,21.274,5.902z M21.93,6.475c-0.291-0.26,0.092-1.105,0.863-1.897c0.674-0.693,1.331-1.369,1.971-2.027
			c0.771-0.792,1.77-1.381,2.226-1.289c0.456,0.093,0.194,0.831-0.576,1.622c-0.198,0.202-0.396,0.405-0.592,0.607
			c-0.771,0.791-0.565,1.1,0.486,0.762c0.093-0.029,0.185-0.059,0.275-0.087c1.055-0.328,2.227-0.867,2.593-1.279
			c0.367-0.412,1.188-0.501,1.772-0.106c0.348,0.235,0.685,0.493,1.022,0.766c0.656,0.529-2.073,1.88-2.347,2.053
			c-1.136,0.72-2.219,1.52-3.271,2.359C25.491,8.648,24.6,9.01,24.335,8.742c-0.265-0.269-0.084-0.877,0.408-1.362
			s0.513-1.126,0.036-1.415c-0.478-0.289-1.199-0.172-1.6,0.239C22.779,6.615,22.221,6.735,21.93,6.475z"/>
		<path d="M42.978,38.546c7.131-10.484,1.384-24.617-6.412-33.06c-0.136-0.147-0.452-0.152-0.787-0.08
			c-0.443,0.095-0.789,0.306-0.819,0.32c-0.02,0.009-0.037,0.019-0.052,0.029c-3.214,2.146-6.005,4.749-8.855,7.342
			c-0.108,0.1-0.102,0.207-0.021,0.312c6.038,7.801,11.474,16.227,15.097,25.434C41.335,39.369,42.756,38.873,42.978,38.546z
			 M29.201,14.59c-0.694-0.987-1.193-1.735-1.143-1.783c1.837-1.672,3.665-3.328,5.604-4.856c0.867-0.684,1.717-1.068,1.866-0.896
			c0.148,0.172-0.249,0.823-0.888,1.451c-0.381,0.376-0.765,0.754-1.153,1.139c-0.009,0.008-0.017,0.015-0.023,0.023
			c-0.012,0.013,0.509-0.493,1.163-1.129c0.654-0.636,1.562-0.709,2.005-0.148c0.444,0.561,0.139,1.649-0.66,2.412
			c-2.058,1.968-3.35,3.21-4.183,4.015C30.997,15.586,29.836,15.494,29.201,14.59z M31.32,17.539
			c-0.285-0.391,0.111-1.348,0.884-2.138c1.379-1.411,2.742-2.804,4.086-4.177c0.771-0.789,1.634-1.105,1.914-0.699
			c0.279,0.406-0.131,1.38-0.906,2.167c-1.354,1.375-2.71,2.75-4.062,4.127C32.461,17.608,31.604,17.93,31.32,17.539z
			 M40.676,32.945c-0.096-0.197-0.192-0.396-0.291-0.592c-0.491-0.99-0.668-2.029-0.368-2.336c0.301-0.307,0.289-0.326-0.022-0.045
			c-0.313,0.281-0.961-0.238-1.468-1.15c-0.508-0.914-0.286-2.264,0.514-3.025c0.22-0.209,0.438-0.418,0.657-0.627
			c0.799-0.762,1.41-1.434,1.362-1.503c-0.046-0.068-0.724,0.502-1.513,1.273c-0.215,0.211-0.43,0.422-0.646,0.633
			c-0.789,0.771-0.791,0.768-0.005-0.008c0.214-0.209,0.429-0.422,0.644-0.635c0.787-0.773,1.417-1.417,1.403-1.437
			c-0.015-0.021-0.664,0.59-1.454,1.363c-0.213,0.207-0.427,0.416-0.64,0.623c-0.79,0.771-1.816,0.732-2.308-0.078
			c-0.491-0.812-0.245-2.075,0.562-2.828c0.164-0.152,0.327-0.304,0.491-0.456c0.81-0.753,1.229-1.697,0.937-2.107
			c-0.292-0.41-1.186-0.133-1.995,0.619c-0.142,0.13-0.281,0.261-0.422,0.392c-0.811,0.751-1.704,0.992-2.002,0.538
			c-0.298-0.454,0.121-1.421,0.935-2.167c0.114-0.105,0.232-0.213,0.354-0.324c0.813-0.747,1.339-1.535,1.17-1.757
			c-0.169-0.222-0.623-0.106-1.014,0.259c-0.229,0.215-0.462,0.433-0.705,0.66c-0.338,0.333-0.633,0.623-0.893,0.878
			c-0.494,0.483-0.948,0.795-1.01,0.701c-0.038-0.057-0.075-0.114-0.114-0.171c-0.058-0.085-0.225-0.317-0.463-0.645
			c-0.258-0.354,0.193-1.247,1.007-1.994c1.229-1.128,2.459-2.254,3.691-3.377c0.316-0.318,0.635-0.636,0.954-0.954
			c0.526-0.526,1.439-0.199,1.983,0.763c2.962,5.232,4.811,11.308,4.172,17.035c-0.122,1.098-0.845,2.49-1.487,3.131
			C42.051,34.236,41.158,33.939,40.676,32.945z"/>
		<path d="M6.408,38.835c0.306,0.016,0.57-0.047,0.595-0.012c0.025,0.035,0.077,0.033,0.115-0.002s0.072-0.084,0.078-0.109
			c0.006-0.023,0.185-0.113,0.357-0.26c0.118-0.1,0.201-0.213,0.226-0.332c1.641-7.775,5.018-14.494,10.252-20.478
			c1.103-1.204,2.22-2.389,3.357-3.562c0.146-0.15,0.287-0.362,0.117-0.556c-3.092-3.528-6.402-6.498-10.686-8.47
			c-0.503-0.231-1.135-0.014-1.544,0.305c-10.739,8.372-11.208,22.656-3.359,33.26C6.018,38.757,6.199,38.824,6.408,38.835z
			 M6.819,34.576c-0.228,0.762-0.56,1.117-0.761,0.781c-0.201-0.334-0.009-0.955,0.419-1.383C6.905,33.55,7.046,33.816,6.819,34.576
			z M4.074,14.117c0.173-0.436,0.361-0.87,0.568-1.302C5.735,10.529,7.6,7.244,10.004,6.94c1.096-0.139,1.283,1.032,0.492,1.803
			c-1.748,1.704-3.562,3.468-5.472,5.317C4.231,14.828,3.785,14.846,4.074,14.117z M4.997,14.147
			c1.438-1.394,3.503-3.407,5.532-5.384c0.792-0.771,1.445-1.389,1.459-1.38c0.014,0.009-0.618,0.638-1.412,1.407
			c-1.648,1.596-3.545,3.434-5.611,5.438c-0.793,0.769-1.43,1.374-1.421,1.351C3.552,15.553,4.204,14.915,4.997,14.147z
			 M2.417,23.013c0.033-0.493,0.051-0.856,0.051-1.025c0-0.107-0.007-0.328-0.021-0.639c0.023-0.406,0.056-0.813,0.101-1.219
			c0.073-0.672,0.791-1.853,1.562-2.644c2.591-2.658,5.164-5.282,7.725-7.885c0.775-0.788,1.922-1.071,2.527-0.588
			c0.606,0.483,0.442,1.541-0.336,2.325c-3.405,3.433-6.81,6.867-10.204,10.307c-0.776,0.786-1.404,1.411-1.405,1.396
			C2.417,23.032,2.417,23.022,2.417,23.013z M4.08,31.32c-0.195-0.496,0.288-1.549,1.057-2.342c1.095-1.133,2.18-2.252,3.249-3.355
			c0.769-0.793,1.425-2.17,1.541-3.07c0.071-0.544,0.163-1.085,0.28-1.619c0.019-0.09,0.042-0.177,0.065-0.263
			c0.039-0.144-0.569,0.368-1.356,1.144c-1.497,1.477-3.003,2.966-4.517,4.462c-0.786,0.775-1.627,0.533-1.774-0.561
			c-0.012-0.09-0.023-0.178-0.034-0.266c-0.135-1.096,0.499-2.601,1.307-3.354c2.964-2.758,5.894-5.553,8.822-8.38
			c0.794-0.767,1.8-1.859,2.291-2.4s1.31-0.592,1.785-0.137c0.288,0.276,0.573,0.553,0.854,0.832
			c2.238,2.218,0.496,3.462-1.175,5.286c-2.221,2.539-4.121,5.185-5.708,7.977c-0.546,0.961-0.956,1.688-0.966,1.596
			c-0.01-0.09-0.637,0.477-1.406,1.271c-0.852,0.879-1.704,1.756-2.555,2.635C5.071,31.57,4.275,31.816,4.08,31.32z M5.288,33.976
			c-0.185-0.352-0.241-0.727-0.137-0.828c0.062-0.064,0.126-0.127,0.189-0.189c0.582-0.574,1.163-1.146,1.745-1.721
			c0.787-0.775,1.137-0.736,0.82,0.104S6.97,33.259,6.493,33.74C6.016,34.218,5.473,34.328,5.288,33.976z"/>
		<path d="M10.441,42.917c0.016,0.021,0.765,0.551,1.734,1.08c1.296,0.711,2.648,1.273,4.035,1.703
			c1.055,0.326,1.895,0.541,1.848,0.584s0.333,0.189,0.854,0.303s0.996,0.133,1.058,0.072c0.061-0.061,0.999,0.016,2.102,0.076
			c5.597,0.299,11.353-1.223,16.221-4.037c0.073-0.041,0.264-0.178,0.224-0.297c-2.876-8.426-7.46-15.92-12.604-23.137
			c-0.652-0.908-1.316-1.808-1.991-2.699c-0.327-0.437-1.54,0.015-1.842,0.324c-6.712,6.893-10.228,14.678-11.441,24.004
			C10.492,41.988,10.425,42.898,10.441,42.917z M18.011,23.896c1-1.538,2.121-3,3.322-4.404c0.719-0.839,1.518-1.241,1.749-0.929
			s0.279,0.697,0.11,0.859c-0.099,0.095-0.2,0.191-0.306,0.293c-1.535,1.527-3.029,3.014-4.5,4.478
			C17.604,24.972,17.409,24.824,18.011,23.896z M23.387,28.998c-3.067,2.848-6.133,5.699-9.198,8.553
			c-0.809,0.752-1.342,0.475-1.137-0.609c0.342-1.812,0.793-3.602,1.327-5.375c0.114-0.377,0.237-0.75,0.367-1.119
			c0.217-0.615,0.448-1.139,0.488-1.18c0.023-0.025,0.047-0.051,0.071-0.074c2.514-2.596,5.005-5.162,7.47-7.698
			c0.77-0.792,1.854-0.789,2.411,0.016c0.559,0.804,0.368,2.095-0.413,2.875c-2.256,2.252-5.085,5.084-8.667,8.68
			c-0.779,0.781-0.757,0.807,0.05,0.053c2.924-2.729,5.915-5.52,8.896-8.307c0.808-0.755,1.962-0.625,2.565,0.301
			c2.034,3.123,3.93,6.328,5.627,9.67c1.481,2.92,4.87,7.566,0.049,9.582c-3.458,1.445-7.275,1.797-10.992,1.479
			c-1.101-0.094-2.104-0.312-2.25-0.412c-0.146-0.098-0.251-0.316-0.232-0.482c0.018-0.166-0.153-0.133-0.38,0.076
			c-0.227,0.207-1.296,0.219-2.355-0.096c-0.46-0.137-0.927-0.295-1.379-0.48c-1.022-0.42-1.127-1.586-0.351-2.373
			c1.529-1.551,3.065-3.107,4.609-4.672c0.776-0.787,1.411-1.443,1.417-1.465c0.006-0.021-0.337,0.279-0.767,0.676
			c-0.255,0.232-0.513,0.471-0.779,0.715c-1.611,1.492-3.223,2.984-4.834,4.477c-0.811,0.75-1.833,1.062-2.127,0.576
			c-0.293-0.482,0.306-1.559,1.121-2.303c2.406-2.201,4.807-4.404,7.204-6.611c0.812-0.75,1.798-2.191,2.268-3.191
			c0.139-0.295,0.282-0.59,0.429-0.885C24.395,28.406,24.196,28.246,23.387,28.998z"/>
		<path d="M41.883,25.568c-0.144,0.141-0.137,0.146,0.008,0.01C42.036,25.439,42.026,25.427,41.883,25.568z"/>
		<path d="M8.011,8.305C7.344,8.954,7.389,9.001,8.056,8.353C8.722,7.704,8.677,7.656,8.011,8.305z"/>
	</g>
</g>
</svg>